<svg xmlns="http://www.w3.org/2000/svg" height="50pt" viewBox="-20 -109 638.66771 638" width="50pt"><path d="m598.558594 254.960938c.328125-1.886719.085937-3.828126-.695313-5.570313l-105.726562-223.003906c-6.789063-15.003907-19.953125-26.164063-35.863281-30.40625-18.371094-4.328125-37.71875-.308594-52.847657 10.976562-3.046875 2-4.765625 5.5-4.476562 9.132813.285156 3.632812 2.527343 6.820312 5.847656 8.316406 3.324219 1.496094 7.199219 1.066406 10.109375-1.125 10.328125-7.867188 23.59375-10.785156 36.277344-7.988281 10.207031 2.777343 18.632812 9.988281 22.957031 19.648437l99.3125 209.496094-64.164063-9.335938-36.234374-73.476562c-1.890626-3.160156-5.304688-5.09375-8.988282-5.09375-3.679687 0-7.089844 1.933594-8.984375 5.09375l-36.234375 73.476562-72.570312 10.582032c-12.167969-21.957032-25.515625-21.957032-46.917969-21.957032-21.398437 0-34.75 0-46.914063 21.957032l-72.574218-10.582032-36.234375-73.476562c-1.890625-3.160156-5.300781-5.09375-8.988281-5.09375-3.679688 0-7.089844 1.933594-8.980469 5.09375l-36.234375 73.476562-64.136719 9.324219 99.3125-209.496093c4.324219-9.660157 12.75-16.867188 22.960937-19.648438 12.679688-2.796875 25.945313.125 36.273438 7.988281 2.910156 2.195313 6.785156 2.625 10.109375 1.128907 3.320313-1.496094 5.5625-4.683594 5.851563-8.316407.285156-3.636719-1.429688-7.136719-4.480469-9.132812-15.128907-11.28125-34.472657-15.296875-52.847657-10.976563-15.914062 4.238282-29.082031 15.402344-35.871093 30.402344l-105.71875 223.015625c-.777344 1.742187-1.023438 3.683594-.695313 5.570313-.648437 3.230468.378906 6.570312 2.722656 8.886718l58.667969 57.207032-13.878906 80.644531c-.6875 3.761719.875 7.582031 3.996094 9.796875 3.078125 2.183594 7.109375 2.488281 10.480469.792968l72.46875-38.128906 72.476562 38.128906c1.464844.703126 3.066406 1.078126 4.691406 1.101563 2.082032.015625 4.117188-.652344 5.789063-1.894531 3.121093-2.214844 4.683593-6.035156 3.996093-9.796875l-13.878906-80.644531 58.695313-57.207032c2.0625-1.988281 3.152343-4.773437 2.992187-7.628906 6.453125-12.382812 9.542969-12.527344 29.949219-12.527344s23.542969.144532 29.945313 12.527344c-.15625 2.855469.9375 5.640625 3 7.628906l58.691406 57.207032-13.875 80.644531c-.6875 3.761719.871094 7.582031 3.996094 9.796875 3.078124 2.183594 7.105468 2.488281 10.480468.792968l72.46875-38.128906 72.472656 38.128906c1.46875.703126 3.066407 1.078126 4.695313 1.101563 2.082031.015625 4.113281-.652344 5.785156-1.894531 3.125-2.214844 4.683594-6.035156 3.996094-9.796875l-13.875-80.644531 58.695313-57.207032c2.347656-2.316406 3.371093-5.65625 2.722656-8.886718zm-442.554688-23.171876 8.296875 16.792969c.246094.519531.738281.828125 1.066407 1.285157l-83.210938 66.570312c-.257812-2.289062-1.285156-4.425781-2.90625-6.066406l-9.671875-9.441406zm-84.976562 151.820313 7.753906-44.917969 102.5-83.28125 40.320312 5.839844zm414.394531-151.820313 8.292969 16.792969c.25.519531.742187.828125 1.070312 1.285157l-83.214844 66.570312c-.257812-2.289062-1.28125-4.425781-2.902343-6.066406l-9.671875-9.441406zm-84.976563 151.820313 7.753907-44.917969 102.5-83.28125 40.316406 5.839844zm0 0" style="fill: rgb(255, 255, 255);"></path></svg>